<svg width="166" height="166" viewBox="0 0 166 166" fill="none" xmlns="http://www.w3.org/2000/svg">
<path d="M102.978 47.4664C102.978 35.4574 93.2125 25.6927 81.2043 25.6927C69.1958 25.6927 59.4307 35.4582 59.4307 47.4664C59.4307 54.5733 62.2838 58.3796 65.0462 62.0688C66.6154 64.1634 68.0938 66.1346 69.1638 68.8061C69.6761 70.0835 70.6293 71.0821 71.8094 71.6527V78.5132C71.8094 79.9008 72.3282 81.1588 73.3138 82.1445L74.481 83.3117C75.4601 84.3038 76.7181 84.829 78.1252 84.829H84.5837C85.9779 84.829 87.2359 84.3103 88.2215 83.3247L89.4146 82.1315C90.3873 81.1394 90.906 79.8879 90.906 78.5133V71.4972C91.95 70.9071 92.793 69.9733 93.2599 68.8062C94.3233 66.141 95.8018 64.1634 97.371 62.0754C100.127 58.3858 102.98 54.573 102.98 47.466L102.978 47.4664ZM86.1774 72.1921V74.476H76.5287L76.5351 72.1921H86.1774ZM86.0607 78.7997L84.8805 79.9799C84.7898 80.0706 84.7379 80.1031 84.5823 80.1031H78.1238C77.9681 80.1031 77.9228 80.0706 77.832 79.9799L76.6518 78.7997C76.5546 78.7024 76.5286 78.6506 76.5286 78.5079V77.1902H86.1774V78.5079C86.1774 78.6246 86.1644 78.696 86.0607 78.7997ZM88.8684 67.05C88.7582 67.3288 88.5507 67.465 88.2459 67.465H83.7133L83.7198 48.6917L85.8597 46.928C86.8647 46.098 87.0074 44.6131 86.1774 43.6015C85.3474 42.5964 83.8625 42.4537 82.8509 43.2837L81.353 44.5158L79.8487 43.2773C78.8436 42.4473 77.3522 42.5964 76.5222 43.6015C75.6922 44.6066 75.8413 46.098 76.8464 46.928L78.9928 48.6917V67.465H74.1684C73.8701 67.465 73.6561 67.3223 73.5459 67.05C72.249 63.8013 70.4269 61.3761 68.8253 59.2363C66.3158 55.8903 64.15 52.9983 64.15 47.4672C64.15 38.0648 71.8015 30.419 81.1982 30.419C90.6006 30.419 98.2464 38.0705 98.2464 47.4672C98.2464 52.9983 96.0807 55.8905 93.5777 59.2363C91.9825 61.3827 90.1669 63.8078 88.87 67.05H88.8684ZM78.8436 22.5868V18.4433C78.8436 17.14 79.9005 16.0831 81.2038 16.0831C82.5071 16.0831 83.5641 17.1401 83.5641 18.4433V22.5868C83.5641 23.8902 82.5071 24.9471 81.2038 24.9471C79.9005 24.9471 78.8436 23.8901 78.8436 22.5868ZM97.1423 31.5482C96.2215 30.6274 96.215 29.1296 97.1358 28.2087L100.06 25.2777C100.981 24.3569 102.479 24.3504 103.4 25.2712C104.321 26.192 104.327 27.6898 103.406 28.6107L100.482 31.5417C100.021 32.0021 99.4184 32.2356 98.8088 32.2356C98.2057 32.2356 97.6027 32.0086 97.1423 31.5482ZM103.73 47.4676C103.73 46.1643 104.787 45.1074 106.091 45.1074H110.228C111.531 45.1074 112.588 46.1643 112.588 47.4676C112.588 48.771 111.531 49.8279 110.228 49.8279H106.091C104.787 49.8279 103.73 48.7709 103.73 47.4676ZM103.406 66.3238C104.327 67.2446 104.327 68.7425 103.4 69.6633C102.939 70.1237 102.336 70.3507 101.733 70.3507C101.13 70.3507 100.521 70.1173 100.06 69.6569L97.1357 66.7259C96.2149 65.8051 96.2149 64.3073 97.1422 63.3864C98.063 62.4656 99.5608 62.4656 100.482 63.3928L103.406 66.3238ZM59.015 28.61C58.0943 27.6892 58.0943 26.1914 59.0215 25.2705C59.9423 24.3497 61.4401 24.3497 62.361 25.277L65.2855 28.208C66.2063 29.1288 66.2063 30.6266 65.279 31.5475C64.8187 32.0079 64.2156 32.2349 63.6125 32.2349C63.0095 32.2349 62.4 32.0014 61.9395 31.541L59.015 28.61ZM49.8202 47.4662C49.8202 46.1629 50.8771 45.106 52.1804 45.106H56.3239C57.6273 45.106 58.6841 46.1629 58.6841 47.4662C58.6841 48.7695 57.6272 49.8265 56.3239 49.8265H52.1804C50.877 49.8265 49.8202 48.7695 49.8202 47.4662ZM65.2789 63.3912C66.1997 64.312 66.2062 65.8098 65.2854 66.7307L62.3609 69.6617C61.9005 70.1221 61.291 70.3555 60.6879 70.3555C60.0848 70.3555 59.4818 70.1286 59.0214 69.6682C58.1006 68.7474 58.0941 67.2495 59.0149 66.3287L61.9394 63.3977C62.8602 62.4704 64.358 62.4704 65.2789 63.3912ZM153.459 87.8568C152.176 86.2876 150.354 85.4252 148.33 85.4252H143.675L143.681 62.6334C143.681 58.7686 140.536 55.6238 136.671 55.6238H133.202V10.6613C133.202 9.35791 132.145 8.30103 130.842 8.30103H31.5796C30.2763 8.30103 29.2194 9.35798 29.2194 10.6613V55.6238H25.7503C21.8792 55.6238 18.7341 58.7686 18.7341 62.6334V103.038L17.6642 103.044C15.6346 103.044 13.8125 103.907 12.5416 105.476C11.2642 107.045 10.7843 108.997 11.1799 110.975V110.981L20.3422 155.821C20.5627 156.91 21.5289 157.701 22.6507 157.701H139.765C140.887 157.701 141.853 156.91 142.08 155.814L154.815 93.3828C155.23 91.3855 154.75 89.4273 153.46 87.858L153.459 87.8568ZM136.671 60.3506C137.91 60.3506 138.96 61.3946 138.96 62.6396V85.4314H133.209L133.202 60.3502L136.671 60.3506ZM33.9395 13.0212H128.482V85.4249L87.9282 85.4314C86.2294 85.4314 84.725 86.015 83.4475 87.1756L66.1738 103.042H33.9393L33.9395 13.0212ZM23.4542 62.6331C23.4542 61.3751 24.4852 60.3441 25.7497 60.3441H29.2189V103.038H23.4607L23.4542 62.6331ZM150.192 92.4287L137.84 152.98H24.5834L15.8036 110.034C15.6804 109.431 15.8101 108.932 16.1991 108.446C16.5752 107.979 17.0421 107.758 17.6581 107.758H67.0943C67.6844 107.758 68.255 107.538 68.6894 107.136L86.6326 90.6521C87.0282 90.2955 87.4108 90.1464 87.923 90.1464H148.325C148.941 90.1464 149.408 90.3668 149.797 90.8467C150.192 91.3265 150.316 91.8256 150.192 92.4287Z" fill="#E10A0A"/>
</svg>
