<svg width="161" height="161" viewBox="0 0 161 161" fill="none" xmlns="http://www.w3.org/2000/svg">
<path d="M80.8175 98.3938C88.2175 98.3938 94.9615 95.5687 100.011 90.9313L100.023 90.9188C100.323 90.6375 100.623 90.3563 100.911 90.0625C106.055 84.9188 109.236 77.8188 109.236 69.9678C109.236 62.1169 106.055 55.0185 100.911 49.8732C95.7669 44.7278 88.6608 41.5481 80.8161 41.5481C72.9661 41.5481 65.8668 44.7293 60.7215 49.8732C55.5772 55.0169 52.3964 62.1169 52.3964 69.9678C52.3964 77.8188 55.5776 84.9172 60.7215 90.0625C61.0152 90.3563 61.309 90.6375 61.609 90.9188L61.6215 90.9313C66.6777 95.5625 73.4152 98.3938 80.8148 98.3938H80.8175ZM24.7615 107.613C21.8115 107.613 19.1427 108.806 17.2115 110.744C15.2803 112.675 14.0864 115.344 14.0864 118.294C14.0864 121.244 15.2801 123.913 17.2115 125.838C19.1427 127.769 21.8177 128.969 24.7615 128.969C27.7115 128.969 30.3803 127.775 32.3115 125.838C34.2427 123.906 35.4427 121.238 35.4427 118.294C35.4427 115.344 34.2489 112.675 32.3115 110.744C30.3803 108.813 27.7052 107.613 24.7615 107.613ZM12.0177 105.544C15.2803 102.281 19.7865 100.263 24.7615 100.263C29.7364 100.263 34.2489 102.281 37.5115 105.544C39.774 107.806 41.4427 110.681 42.2489 113.888L49.4364 112.375C51.2239 112 52.7364 111.05 53.7989 109.738C54.8552 108.444 55.4677 106.763 55.4677 104.925V95.2125C49.0303 88.7437 45.0489 79.8311 45.0489 69.9805C45.0489 60.1055 49.0552 51.1618 55.5239 44.6858C61.9927 38.217 70.9359 34.2109 80.8185 34.2109C90.6935 34.2109 99.6372 38.2171 106.113 44.6858C112.582 51.1546 116.588 60.0978 116.588 69.9805C116.588 79.8242 112.607 88.7431 106.169 95.2125V104.925C106.169 106.762 106.782 108.444 107.838 109.738C108.901 111.05 110.413 112 112.201 112.375L119.388 113.888C120.194 110.681 121.863 107.813 124.126 105.544C127.388 102.281 131.894 100.263 136.876 100.263C141.851 100.263 146.363 102.281 149.619 105.544C152.882 108.806 154.901 113.313 154.901 118.294C154.901 123.269 152.882 127.781 149.619 131.038C146.357 134.3 141.851 136.319 136.876 136.319C131.901 136.319 127.388 134.3 124.126 131.038C121.538 128.45 119.732 125.081 119.101 121.319L110.713 119.556C107.226 118.819 104.257 116.95 102.157 114.369C100.051 111.775 98.8256 108.481 98.8256 104.931V100.9C94.5381 103.4 89.6819 105.038 84.5003 105.569V122.9C88.0065 123.631 91.1315 125.368 93.5691 127.806C96.8316 131.068 98.8503 135.575 98.8503 140.55C98.8503 145.524 96.8315 150.037 93.5691 153.3C90.3067 156.562 85.8003 158.581 80.8253 158.581C75.8504 158.581 71.3379 156.562 68.0753 153.3C64.8128 150.037 62.7941 145.531 62.7941 140.55C62.7941 135.575 64.8129 131.062 68.0753 127.806C70.5128 125.368 73.6441 123.625 77.1503 122.9V105.569C71.9691 105.044 67.1128 103.406 62.8249 100.9V104.931C62.8249 108.481 61.5937 111.775 59.4937 114.369C57.3937 116.956 54.4249 118.825 50.9375 119.556L42.55 121.319C41.9125 125.081 40.1063 128.45 37.5249 131.038C34.2624 134.3 29.7561 136.319 24.7749 136.319C19.8 136.319 15.2875 134.3 12.0312 131.038C8.76867 127.775 6.75 123.269 6.75 118.294C6.75 113.319 8.7688 108.806 12.0312 105.544H12.0177ZM80.8177 129.862C77.8677 129.862 75.1989 131.056 73.2677 132.988C71.3365 134.919 70.1427 137.594 70.1427 140.538C70.1427 143.488 71.3364 146.156 73.2677 148.088C75.1991 150.019 77.874 151.213 80.8177 151.213C83.7677 151.213 86.4365 150.019 88.3677 148.088C90.2989 146.156 91.4928 143.481 91.4928 140.538C91.4928 137.588 90.2991 134.919 88.3677 132.988C86.4364 131.056 83.7615 129.862 80.8177 129.862ZM136.874 107.613C133.924 107.613 131.255 108.807 129.324 110.744C127.393 112.676 126.193 115.344 126.193 118.294C126.193 121.244 127.386 123.913 129.324 125.838C131.255 127.769 133.93 128.969 136.874 128.969C139.824 128.969 142.493 127.776 144.417 125.838C146.355 123.907 147.549 121.238 147.549 118.294C147.549 115.344 146.355 112.676 144.417 110.744C142.486 108.813 139.817 107.613 136.874 107.613ZM36.7991 88.3505C37.5741 90.2254 36.6866 92.3693 34.8179 93.1442C32.9429 93.9192 30.7991 93.0317 30.0241 91.163C29.4741 89.838 28.9616 88.4818 28.5116 87.0881C28.3491 86.5818 28.1866 86.0631 28.0303 85.5443L16.0615 84.7506C14.1178 84.6256 12.6178 83.0131 12.6241 81.0881H12.6116V58.856C12.6116 56.831 14.249 55.1872 16.2741 55.1811L28.0241 54.4061C28.5741 52.5186 29.2241 50.6936 29.9616 48.9124C30.7116 47.1124 31.549 45.3561 32.4804 43.6498L24.5678 34.6186C23.2928 33.1624 23.3804 30.9686 24.7366 29.6186L24.7241 29.6061L40.4494 13.8808C41.8869 12.4433 44.212 12.4433 45.6494 13.8808L45.6807 13.9183L54.4932 21.6434C56.1995 20.7121 57.962 19.8684 59.762 19.1246C61.5308 18.3933 63.3557 17.7496 65.2557 17.1871L66.0495 5.21217C66.1682 3.26844 67.787 1.76844 69.712 1.77471V1.76221H91.944C93.9691 1.76221 95.6128 3.39967 95.619 5.42474L96.394 17.1873C98.2814 17.7373 100.106 18.3873 101.888 19.1247C103.688 19.8747 105.444 20.7122 107.15 21.6435L116.188 13.7247C117.644 12.4497 119.838 12.5372 121.188 13.8935L121.2 13.881L136.926 29.6063C138.363 31.0438 138.363 33.3626 136.926 34.8063L136.888 34.8376L129.169 43.6438C130.1 45.3501 130.944 47.1126 131.688 48.9126C132.426 50.6814 133.063 52.5126 133.625 54.4064L145.594 55.2001C147.538 55.3189 149.038 56.9376 149.032 58.8627H149.044V81.0947C149.044 83.1197 147.407 84.7635 145.382 84.7696L133.632 85.5446C133.475 86.0696 133.319 86.5883 133.15 87.0883C132.7 88.4758 132.188 89.8321 131.638 91.1571C130.863 93.0321 128.713 93.9134 126.844 93.1383C124.969 92.3633 124.088 90.2133 124.863 88.3446C125.351 87.1821 125.782 86.0071 126.176 84.8195C126.557 83.6508 126.888 82.507 127.163 81.3821C127.463 79.7695 128.826 78.5009 130.544 78.3946L141.7 77.6571V62.2878L130.544 61.5503V61.5378C128.982 61.444 127.594 60.3378 127.213 58.7315C126.644 56.3566 125.869 54.0127 124.919 51.719C123.963 49.4127 122.838 47.2002 121.557 45.1127C120.744 43.7752 120.85 42.0252 121.932 40.7939L129.307 32.3688L118.432 21.4939L110.138 28.7627C108.969 29.8877 107.144 30.1376 105.688 29.2502C103.601 27.9752 101.394 26.8439 99.0817 25.8877C96.8629 24.9689 94.5817 24.2189 92.2443 23.6439C90.6255 23.3439 89.3568 21.9814 89.2568 20.2627L88.5193 9.10646H73.15L72.4125 20.2627H72.4C72.3062 21.8253 71.2 23.2127 69.5937 23.5939C67.2249 24.1627 64.8749 24.9377 62.5875 25.8877C60.2812 26.8439 58.0687 27.9689 55.9812 29.2502C54.6499 30.0627 52.8937 29.9564 51.6624 28.8752L43.2373 21.494L32.3624 32.3689L39.6312 40.6627C40.7562 41.8314 41.0061 43.6627 40.1187 45.1189C38.8437 47.2064 37.7124 49.4127 36.7561 51.7252C35.8374 53.944 35.0812 56.2252 34.5124 58.5627C34.2124 60.1752 32.8499 61.4501 31.1312 61.5501L19.9749 62.2876V77.657L31.1312 78.3945V78.4007C32.6937 78.4945 34.0749 79.5945 34.4624 81.1944C34.7437 82.3757 35.0937 83.5819 35.4937 84.8256C35.8812 86.0131 36.3187 87.1944 36.8062 88.3507L36.7991 88.3505Z" fill="#E10A0A"/>
</svg>
