<svg width="162" height="162" viewBox="0 0 162 162" fill="none" xmlns="http://www.w3.org/2000/svg">
<path d="M132.063 32.8116L119.229 23.6676C117.489 22.4272 115.736 21.7944 114.028 21.7944C110.756 21.7944 107.453 24.2498 107.453 29.7299V50.6441C107.453 56.1243 110.75 58.5795 114.028 58.5795C115.736 58.5795 117.489 57.9467 119.229 56.7127L132.063 47.5686C134.67 45.7082 136.17 43.0187 136.17 40.1901C136.17 37.3551 134.67 34.6656 132.063 32.8115V32.8116ZM128.297 42.2912L115.464 51.4353C114.863 51.8656 114.407 52.0365 114.16 52.0871C114.072 51.8909 113.933 51.4606 113.933 50.6442V29.73C113.933 28.92 114.072 28.4834 114.16 28.2871C114.407 28.3378 114.863 28.5086 115.464 28.9389L128.297 38.083C129.19 38.7222 129.683 39.4626 129.683 40.1839C129.69 40.9053 129.196 41.6521 128.297 42.2912Z" fill="#E10A0A"/>
<path d="M139.63 4.86011H103.977C97.636 4.86011 92.08 8.26467 89.0107 13.3272H30.04C20.8263 13.3272 13.3284 20.826 13.3284 30.0456V89.023C8.25955 92.0921 4.85498 97.642 4.85498 103.982V139.636C4.85498 149.286 12.7082 157.14 22.3591 157.14H58.0126C60.1895 157.14 62.2714 156.722 64.1952 155.988C64.2585 155.963 64.3217 155.944 64.385 155.919C67.9857 154.507 70.9979 151.938 72.9786 148.667H131.956C141.17 148.667 148.668 141.168 148.668 131.948L148.661 72.9775C153.73 69.9084 157.135 64.3586 157.135 58.0181V22.3646C157.135 12.7143 149.282 4.86054 139.631 4.86054L139.63 4.86011ZM17.8212 93.9466C17.8275 93.9403 17.8402 93.9403 17.8465 93.934C19.2261 93.3138 20.7512 92.9594 22.3585 92.9594H58.012C64.0933 92.9594 69.0355 97.9016 69.0355 103.983V117.183L50.4757 135.743L30.9723 116.24C29.7067 114.974 27.6564 114.974 26.3907 116.24L11.3355 131.295V103.983C11.3355 99.5218 13.9995 95.687 17.8218 93.9467L17.8212 93.9466ZM68.0412 144.173C67.1299 146.186 65.6239 147.869 63.7571 149.021L55.056 140.32L69.0285 126.347V139.636C69.0285 141.243 68.6741 142.769 68.0539 144.148C68.0539 144.161 68.0475 144.167 68.0412 144.173ZM11.3736 140.421L28.6819 123.112L56.2354 150.659H22.3612C16.5457 150.659 11.7806 146.128 11.3756 140.42L11.3736 140.421ZM142.182 131.954C142.182 137.598 137.588 142.193 131.949 142.193H75.3059C75.4262 141.357 75.5148 140.509 75.5148 139.642V103.983C75.5148 94.3331 67.6616 86.4794 58.0107 86.4794H22.3572C21.4902 86.4794 20.6423 86.5616 19.8069 86.6882V30.0449C19.8069 24.4003 24.4011 19.8059 30.0395 19.8059H86.6828C86.5626 20.6413 86.474 21.4893 86.474 22.3562V58.0097C86.474 67.6601 94.3272 75.5138 103.978 75.5138H139.632C140.499 75.5138 141.346 75.4316 142.182 75.305L142.188 131.955L142.182 131.954ZM150.655 58.0155C150.655 62.4769 147.991 66.3117 144.169 68.052C144.163 68.0583 144.15 68.0583 144.144 68.0646C142.764 68.6848 141.239 69.0392 139.632 69.0392H103.978C97.8968 69.0392 92.9546 64.097 92.9546 58.0156V22.3621C92.9546 20.7548 93.3089 19.2297 93.9291 17.8502C93.9354 17.8438 93.9354 17.8312 93.9418 17.8248C95.682 14.0027 99.5232 11.3385 103.978 11.3385H139.632C145.713 11.3385 150.655 16.2807 150.655 22.3621L150.655 58.0155Z" fill="#E10A0A"/>
<path d="M50.4793 121.766C56.7759 121.766 61.8952 116.646 61.8952 110.35C61.8952 104.054 56.7757 98.9341 50.4793 98.9341C44.1829 98.9341 39.0635 104.054 39.0635 110.35C39.0635 116.646 44.1893 121.766 50.4793 121.766ZM50.4793 105.413C53.2004 105.413 55.4152 107.628 55.4152 110.349C55.4152 113.07 53.2004 115.285 50.4793 115.285C47.7583 115.285 45.5435 113.07 45.5435 110.349C45.5435 107.628 47.7583 105.413 50.4793 105.413Z" fill="#E10A0A"/>
<path d="M75.3368 42.6074H32.1975C30.4066 42.6074 28.9575 44.0565 28.9575 45.8474C28.9575 47.6383 30.4066 49.0874 32.1975 49.0874H75.3368C77.1277 49.0874 78.5768 47.6383 78.5768 45.8474C78.5768 44.0629 77.1277 42.6074 75.3368 42.6074Z" fill="#E10A0A"/>
<path d="M75.3368 58.447H32.1975C30.4066 58.447 28.9575 59.8961 28.9575 61.687C28.9575 63.4779 30.4066 64.927 32.1975 64.927H75.3368C77.1277 64.927 78.5768 63.4779 78.5768 61.687C78.5768 59.8961 77.1277 58.447 75.3368 58.447Z" fill="#E10A0A"/>
<path d="M129.803 97.073H86.6633C84.8724 97.073 83.4233 98.5221 83.4233 100.313C83.4233 102.104 84.8724 103.553 86.6633 103.553H129.803C131.593 103.553 133.043 102.104 133.043 100.313C133.043 98.5284 131.593 97.073 129.803 97.073Z" fill="#E10A0A"/>
<path d="M129.803 112.913H86.6633C84.8724 112.913 83.4233 114.362 83.4233 116.153C83.4233 117.944 84.8724 119.393 86.6633 119.393H129.803C131.593 119.393 133.043 117.944 133.043 116.153C133.043 114.362 131.593 112.913 129.803 112.913Z" fill="#E10A0A"/>
</svg>
