<?xml version="1.0" encoding="UTF-8"?>
<svg width="140px" height="42px" viewBox="0 0 140 42" version="1.1" xmlns="http://www.w3.org/2000/svg" xmlns:xlink="http://www.w3.org/1999/xlink">
    <title>07-Decoratives/images/logo Variation 2</title>
    <g id="07-Decoratives/images/logo-Variation-2" stroke="none" stroke-width="1" fill="none" fill-rule="evenodd">
        <g id="SEEBURGER-Logo-Slogan-WHITE-RGB" fill="#FFFFFF" fill-rule="nonzero">
            <g id="Group" transform="translate(10.058999, 10.000000)">
                <path d="M5.54428972,11.6682136 C7.67915207,12.510118 9.52253687,13.2359592 9.52253687,15.6230438 C9.52253687,19.2830754 6.3052139,19.5669744 5.31880548,19.5669744 C3.89726696,19.5669744 2.2259757,19.0065847 0.848631414,18.0694797 L0,17.4914634 L0,19.9712792 L0.285687176,20.1258313 C1.51673919,20.7889151 3.40610642,21.5798981 5.40566119,21.5798981 C8.50939051,21.5798981 11.6507573,19.6138084 11.6507573,15.8552551 C11.6507573,11.8627874 8.85689852,10.7644033 6.39130324,9.79562145 C4.19708948,8.93285469 2.30108034,8.18776892 2.30108034,5.60772846 C2.30108034,3.68923902 4.08349583,2.12822044 6.27430348,2.12822044 C7.54895366,2.12822044 9.01979556,2.57339855 10.6475738,3.4520037 L11.4486049,3.88466437 L11.4486049,1.70305321 L11.1729657,1.54688323 C9.36798479,0.519516382 7.67080711,0 6.12894789,0 C2.63598576,0 0.28900813,2.92916637 0.28900813,5.66622833 C0.28900813,9.59687514 3.08124902,10.6976436 5.54428972,11.6682136 Z" id="Path"></path>
                <path d="M15.0768746,0.346571328 C14.4480222,0.346571328 14.0420995,0.980618038 14.0420995,1.96115092 L14.0420995,20.226056 C14.0420995,20.6345333 14.3193565,21.4346277 14.9616631,21.4346277 L24.1007575,21.4346277 L24.1007575,19.4225555 L16.0825275,19.4225555 L16.0825275,10.9273855 L23.6957714,10.9273855 L23.6957714,8.91522809 L16.0825275,8.91522809 L16.0825275,2.33020255 L24.1007575,2.33020255 L24.1007575,0.346571328 L15.0768746,0.346571328 L15.0768746,0.346571328 Z" id="Path"></path>
                <path d="M27.7449508,0.347422855 C27.1168647,0.347422855 26.7100905,0.981469565 26.7100905,1.9619173 L26.7100905,20.2269075 C26.7100905,20.6361512 26.9873475,21.4363307 27.629654,21.4363307 L36.7696,21.4363307 L36.7696,19.423407 L28.7522216,19.423407 L28.7522216,10.9281518 L36.3636773,10.9281518 L36.3636773,8.91607962 L28.7522216,8.91607962 L28.7522216,2.33105408 L36.7696,2.33105408 L36.7696,0.347422855 L27.7449508,0.347422855 L27.7449508,0.347422855 Z" id="Path"></path>
                <path d="M47.60187,9.6052201 C48.5740579,8.8209641 49.507842,7.60149285 49.507842,5.55178316 C49.507842,2.70027602 47.3495626,0.291477557 44.7954086,0.291477557 L40.3954003,0.291477557 C39.7196288,0.291477557 39.36054,1.02651532 39.36054,1.55769762 L39.36054,20.3146148 C39.36054,20.859166 39.6729651,21.4371823 40.2508962,21.4371823 L44.9399978,21.4371823 C48.1288798,21.4371823 50.9252931,18.5188303 50.9252931,15.1920862 C50.9252931,12.63955 49.6740599,10.5865194 47.60187,9.6052201 M44.4764267,8.91778267 L41.4594679,8.91778267 L41.4594679,2.27425726 L44.36113,2.27425726 C46.1369036,2.27425726 47.5817739,3.74424763 47.5817739,5.551698 C47.5817739,7.31333624 46.1017355,8.91778267 44.4764267,8.91778267 M41.3442564,11.0451516 L44.96912,11.0451516 C46.0767007,11.0451516 47.1056854,11.499441 47.8665244,12.3247406 C48.5864902,13.106442 48.99914,14.1522019 48.99914,15.1920862 C48.99914,17.5640987 47.2066765,19.5696141 45.0843315,19.5696141 L41.3441712,19.5696141 L41.3441712,11.0451516 L41.3442564,11.0451516 Z" id="Shape"></path>
                <path d="M63.8671351,0.349125908 L63.8671351,14.8438118 C63.8671351,17.7278472 62.0429948,19.7433256 59.4320439,19.7433256 C57.130112,19.7433256 54.6537024,18.2015515 54.6537024,14.8154559 L54.6537024,0.349125908 L52.7518177,0.349125908 L52.7518177,14.8730191 C52.7518177,18.6842819 55.736163,21.7846051 59.405306,21.7846051 C63.0486477,21.7846051 65.87512,18.0844666 65.87512,14.9022265 L65.87512,0.349125908 L63.8671351,0.349125908 Z" id="Path"></path>
                <path d="M96.4639141,0.349892282 C95.8350617,0.349892282 95.4282875,0.983087465 95.4282875,1.96362035 L95.4282875,20.2293769 C95.4282875,20.6370027 95.7063961,21.4379486 96.3478511,21.4379486 L105.487797,21.4379486 L105.487797,19.4250249 L97.4704186,19.4250249 L97.4704186,10.9307064 L105.082811,10.9307064 L105.082811,8.91778267 L97.4704186,8.91778267 L97.4704186,2.33267198 L105.487797,2.33267198 L105.487797,0.349892282 L96.4639141,0.349892282 L96.4639141,0.349892282 Z" id="Path"></path>
                <path d="M109.464426,0.350828961 C108.899864,0.350828961 108.207403,0.818487372 108.034543,1.68466023 L108.022792,1.73736973 L108.022792,21.4397369 L110.065774,21.4397369 L110.065774,12.7849056 C111.183318,14.1254639 117.285528,21.4397369 117.285528,21.4397369 L119.882258,21.4397369 C119.882258,21.4397369 113.189515,13.3670943 112.080316,12.0290906 C112.88552,11.9614794 113.793417,11.885438 113.793417,11.885438 C116.495311,11.6590171 118.778084,9.05232388 118.778084,6.19162025 C118.778084,4.64303396 118.184995,3.19058504 117.109262,2.0980764 C116.000063,0.971336398 114.476597,0.350828961 112.821996,0.350828961 L109.464426,0.350828961 L109.464426,0.350828961 Z M113.256359,2.39210854 C114.975336,2.39210854 116.794452,4.2855631 116.794452,6.07462049 C116.794452,8.26798272 115.234115,9.86663877 113.000731,9.96183944 L110.279593,10.077051 C110.20023,10.082075 110.137558,10.1046405 110.065774,10.1180094 L110.065774,2.39210854 L113.256359,2.39210854 Z" id="Shape"></path>
                <path d="M69.6996666,0.349977435 C69.1350193,0.349977435 68.4425578,0.817720999 68.2688464,1.68389386 L68.2587984,1.73736973 L68.2587984,21.4388853 L70.3009295,21.4388853 L70.3009295,12.7841392 C71.4193245,14.1246124 77.5215345,21.4388853 77.5215345,21.4388853 L80.1174134,21.4388853 C80.1174134,21.4388853 73.4255212,13.3662428 72.3147048,12.0282391 C73.1198232,11.9606278 74.0285724,11.8845865 74.0285724,11.8845865 C76.7296999,11.6582507 79.0132388,9.05147235 79.0132388,6.19076872 C79.0132388,2.91494587 76.3964975,0.349977435 73.057236,0.349977435 L69.6996666,0.349977435 L69.6996666,0.349977435 Z M73.4908333,2.39125701 C75.211428,2.39125701 77.0288412,4.28479672 77.0288412,6.07462049 C77.0288412,8.26798272 75.4702921,9.86578724 73.2369081,9.96098792 L70.5157697,10.0762846 C70.4355559,10.0812235 70.3729687,10.1037889 70.3010998,10.1171579 L70.3010998,2.39125701 L73.4908333,2.39125701 L73.4908333,2.39125701 Z" id="Shape"></path>
                <path d="M79.8402414,10.7060737 C79.8402414,15.9229514 83.6706636,21.5540969 89.8581113,21.5540969 C91.573682,21.5540969 92.6361317,21.2166369 92.6361317,19.5344461 L92.6361317,8.97534587 L90.7150877,8.97534587 L90.7150877,19.4802038 C90.3592347,19.542791 90.0184538,19.5987363 89.6969174,19.5987363 C85.6786485,19.5987363 81.7346327,15.3373566 81.7346327,10.9949967 C81.7346327,5.82563411 85.3436579,2.07295637 90.3158069,2.07295637 L91.6671796,2.11970518 L91.6939175,1.55846399 L91.6939175,0.269678476 L90.755961,0.20709127 L90.262331,0.176180855 C83.0743395,0.176180855 79.8402414,6.33356973 79.8402414,10.7060737" id="Path"></path>
            </g>
        </g>
    </g>
</svg>